<mxfile host="app.diagrams.net" modified="2023-12-03T00:56:37.400Z" agent="Mozilla/5.0 (X11; Linux x86_64) AppleWebKit/537.36 (KHTML, like Gecko) Chrome/119.0.0.0 Safari/537.36" etag="mEeHFJ45ShlCZRQ2_Lm7" version="22.1.5" type="device">
  <diagram name="Page-1" id="PA7ro6_KYcPf52Pp-wgz">
    <mxGraphModel dx="1362" dy="759" grid="1" gridSize="10" guides="1" tooltips="1" connect="1" arrows="1" fold="1" page="1" pageScale="1" pageWidth="850" pageHeight="1100" math="0" shadow="0">
      <root>
        <mxCell id="0" />
        <mxCell id="1" parent="0" />
        <mxCell id="ml_WUIczcsjAVnI_78L6-2" value="lis(nums, n)" style="rounded=1;whiteSpace=wrap;html=1;" vertex="1" parent="1">
          <mxGeometry x="370" y="30" width="120" height="60" as="geometry" />
        </mxCell>
        <mxCell id="ml_WUIczcsjAVnI_78L6-3" value="length = 1 + lis(nums, n-1)" style="rounded=1;whiteSpace=wrap;html=1;" vertex="1" parent="1">
          <mxGeometry x="160" y="130" width="120" height="60" as="geometry" />
        </mxCell>
        <mxCell id="ml_WUIczcsjAVnI_78L6-4" value="lis(nums, n-1)" style="rounded=1;whiteSpace=wrap;html=1;" vertex="1" parent="1">
          <mxGeometry x="600" y="130" width="120" height="60" as="geometry" />
        </mxCell>
        <mxCell id="ml_WUIczcsjAVnI_78L6-6" value="" style="curved=1;endArrow=classic;html=1;rounded=0;entryX=0.908;entryY=-0.017;entryDx=0;entryDy=0;entryPerimeter=0;exitX=0.317;exitY=1.05;exitDx=0;exitDy=0;exitPerimeter=0;" edge="1" parent="1" source="ml_WUIczcsjAVnI_78L6-2" target="ml_WUIczcsjAVnI_78L6-3">
          <mxGeometry width="50" height="50" relative="1" as="geometry">
            <mxPoint x="260" y="100" as="sourcePoint" />
            <mxPoint x="310" y="50" as="targetPoint" />
            <Array as="points">
              <mxPoint x="310" y="100" />
              <mxPoint x="260" y="50" />
              <mxPoint x="290" y="50" />
            </Array>
          </mxGeometry>
        </mxCell>
        <mxCell id="ml_WUIczcsjAVnI_78L6-8" value="taking the nth element. &lt;br&gt;And it is part of increasing&lt;br&gt;subsequence&amp;nbsp;" style="edgeLabel;html=1;align=center;verticalAlign=middle;resizable=0;points=[];" vertex="1" connectable="0" parent="ml_WUIczcsjAVnI_78L6-6">
          <mxGeometry x="0.6008" y="1" relative="1" as="geometry">
            <mxPoint as="offset" />
          </mxGeometry>
        </mxCell>
        <mxCell id="ml_WUIczcsjAVnI_78L6-7" value="" style="endArrow=classic;html=1;rounded=0;edgeStyle=orthogonalEdgeStyle;curved=1;entryX=0.5;entryY=0;entryDx=0;entryDy=0;exitX=1;exitY=0.5;exitDx=0;exitDy=0;" edge="1" parent="1" source="ml_WUIczcsjAVnI_78L6-2" target="ml_WUIczcsjAVnI_78L6-4">
          <mxGeometry width="50" height="50" relative="1" as="geometry">
            <mxPoint x="580" y="120" as="sourcePoint" />
            <mxPoint x="630" y="70" as="targetPoint" />
            <Array as="points">
              <mxPoint x="490" y="90" />
              <mxPoint x="580" y="90" />
              <mxPoint x="580" y="100" />
              <mxPoint x="591" y="100" />
              <mxPoint x="591" y="120" />
              <mxPoint x="660" y="120" />
            </Array>
          </mxGeometry>
        </mxCell>
        <mxCell id="ml_WUIczcsjAVnI_78L6-9" value="not takiing the nth element" style="edgeLabel;html=1;align=center;verticalAlign=middle;resizable=0;points=[];" vertex="1" connectable="0" parent="ml_WUIczcsjAVnI_78L6-7">
          <mxGeometry x="0.0417" y="3" relative="1" as="geometry">
            <mxPoint as="offset" />
          </mxGeometry>
        </mxCell>
        <mxCell id="ml_WUIczcsjAVnI_78L6-10" value="base cond = empyt nums arr" style="text;html=1;align=center;verticalAlign=middle;resizable=0;points=[];autosize=1;strokeColor=none;fillColor=none;" vertex="1" parent="1">
          <mxGeometry x="300" y="470" width="180" height="30" as="geometry" />
        </mxCell>
        <mxCell id="ml_WUIczcsjAVnI_78L6-13" value="lis(nums, n-1)" style="rounded=1;whiteSpace=wrap;html=1;" vertex="1" parent="1">
          <mxGeometry x="330" y="250" width="120" height="60" as="geometry" />
        </mxCell>
        <mxCell id="ml_WUIczcsjAVnI_78L6-14" value="" style="curved=1;endArrow=classic;html=1;rounded=0;entryX=0.375;entryY=0;entryDx=0;entryDy=0;entryPerimeter=0;exitX=0.642;exitY=1;exitDx=0;exitDy=0;exitPerimeter=0;" edge="1" parent="1" source="ml_WUIczcsjAVnI_78L6-2" target="ml_WUIczcsjAVnI_78L6-13">
          <mxGeometry width="50" height="50" relative="1" as="geometry">
            <mxPoint x="450" y="140" as="sourcePoint" />
            <mxPoint x="400" y="190" as="targetPoint" />
            <Array as="points">
              <mxPoint x="400" y="140" />
              <mxPoint x="450" y="190" />
            </Array>
          </mxGeometry>
        </mxCell>
        <mxCell id="ml_WUIczcsjAVnI_78L6-15" value="taking the nth element&amp;nbsp;&lt;br&gt;and it is not part of increasing&lt;br&gt;subsequence" style="edgeLabel;html=1;align=center;verticalAlign=middle;resizable=0;points=[];" vertex="1" connectable="0" parent="ml_WUIczcsjAVnI_78L6-14">
          <mxGeometry x="-0.0924" y="3" relative="1" as="geometry">
            <mxPoint as="offset" />
          </mxGeometry>
        </mxCell>
      </root>
    </mxGraphModel>
  </diagram>
</mxfile>
